<?xml version="1.0" standalone="no"?><!DOCTYPE svg PUBLIC "-//W3C//DTD SVG 1.1//EN" "http://www.w3.org/Graphics/SVG/1.1/DTD/svg11.dtd"><svg t="1756644069109" class="icon" viewBox="0 0 1024 1024" version="1.1" xmlns="http://www.w3.org/2000/svg" p-id="28868" xmlns:xlink="http://www.w3.org/1999/xlink" width="256" height="256"><path d="M512 64C264.96 64 64 264.96 64 512s200.96 448 448 448 448-200.96 448-448S759.04 64 512 64z m0 832c-211.744 0-384-172.256-384-384s172.256-384 384-384 384 172.256 384 384-172.256 384-384 384z" p-id="28869" fill="#EA1763"></path><path d="M404.96 770.432a278.208 278.208 0 0 1-90.688-60.672 278.432 278.432 0 0 1-60.704-90.72 32 32 0 0 0-59.136 24.512 341.6 341.6 0 0 0 74.592 111.456 342.176 342.176 0 0 0 111.456 74.56 31.936 31.936 0 0 0 41.792-17.312 31.968 31.968 0 0 0-17.312-41.824z m-193.216-348.16a31.872 31.872 0 0 0 41.824-17.28 278.08 278.08 0 0 1 60.704-90.72 278.304 278.304 0 0 1 90.688-60.704 32 32 0 0 0-24.512-59.136 342.016 342.016 0 0 0-111.456 74.56 342.144 342.144 0 0 0-74.56 111.488 32 32 0 0 0 17.312 41.792zM619.04 253.568a278.784 278.784 0 0 1 90.72 60.704 278.56 278.56 0 0 1 60.672 90.688 32 32 0 1 0 59.136-24.512 342.176 342.176 0 0 0-74.56-111.456A342.432 342.432 0 0 0 643.552 194.4a32.032 32.032 0 0 0-24.512 59.168z m193.216 348.16a32.096 32.096 0 0 0-41.824 17.312 278.336 278.336 0 0 1-60.672 90.72 278.336 278.336 0 0 1-90.72 60.672 32 32 0 0 0 24.512 59.136 342.176 342.176 0 0 0 111.456-74.56 342.848 342.848 0 0 0 74.56-111.456 32 32 0 0 0-17.312-41.824z m-463.68-253.152a230.208 230.208 0 0 0-50.112 74.944 32 32 0 0 0 59.136 24.544 166.784 166.784 0 0 1 36.256-54.208 166.4 166.4 0 0 1 54.208-36.288 32.032 32.032 0 0 0-24.512-59.136 230.592 230.592 0 0 0-74.976 50.144z m227.392 8.992c20.288 8.416 38.528 20.64 54.176 36.256s27.84 33.888 36.288 54.208a32 32 0 1 0 59.136-24.544 230.816 230.816 0 0 0-50.144-74.944 230.4 230.4 0 0 0-74.944-50.112 32 32 0 1 0-24.512 59.136zM448.032 666.432a166.56 166.56 0 0 1-54.208-36.288 166.912 166.912 0 0 1-36.288-54.176A32 32 0 0 0 298.4 600.48a230.464 230.464 0 0 0 50.144 74.944 229.952 229.952 0 0 0 74.944 50.144 32 32 0 0 0 24.544-59.136z m227.36 8.96a230.144 230.144 0 0 0 50.144-74.944 32 32 0 1 0-59.136-24.512c-8.416 20.288-20.64 38.528-36.288 54.176s-33.92 27.872-54.176 36.288a32 32 0 1 0 24.512 59.136 228.96 228.96 0 0 0 74.944-50.144zM640 512c0-70.592-57.408-128-128-128s-128 57.408-128 128 57.408 128 128 128 128-57.408 128-128z m-128 64c-35.296 0-64-28.704-64-64s28.704-64 64-64 64 28.704 64 64-28.704 64-64 64z" p-id="28870" fill="#EA1763"></path></svg>